# Blender v2.92.0 OBJ File: ''
# www.blender.org
o Cube_Cube.001
v -1.574192 3.282305 11.709617
v -28.086760 3.282312 -29.146839
v -28.086760 -5.970320 -29.146841
v -1.574192 -5.970327 11.709615
v -17.228317 3.282313 -36.193100
v -17.228317 -5.970319 -36.193100
v 9.284250 3.282306 4.663355
v 9.284250 -5.970326 4.663354
vn 0.8389 0.0000 -0.5444
vn 0.5444 -0.0000 0.8389
vn -0.8389 -0.0000 0.5444
vn 0.0000 1.0000 0.0000
vn 0.0000 -1.0000 -0.0000
s 1
f 1//1 4//1 3//1 2//1
f 2//2 3//2 6//2 5//2
f 5//3 6//3 8//3 7//3
f 4//4 8//4 6//4 3//4
f 7//5 1//5 2//5 5//5
