# Blender 3.6.1
# www.blender.org

o Cylinder.003
v -3.622554 -0.007647 -1.024034
v -2.359740 1.487667 -1.176641
v -3.628117 0.199089 -0.972404
v -2.613296 1.728139 -0.878995
v -3.627263 0.184283 -1.102454
v -2.715326 1.775823 -1.211782
v -3.554961 0.115713 -1.187328
v -2.609058 1.654710 -1.523984
v -3.453566 0.033545 -1.177307
v -2.356743 1.435745 -1.632717
v -3.382473 -0.014087 -1.078262
v -2.106184 1.247195 -1.474287
v -3.383328 0.000719 -0.948213
v -2.004154 1.199510 -1.141499
v -3.455629 0.069289 -0.863339
v -2.110421 1.320624 -0.829297
v -3.557024 0.151457 -0.873359
v -2.362736 1.539589 -0.720564
v -3.821926 1.687384 -0.699728
v -3.794915 1.720281 -0.703296
v -3.332418 1.911346 -0.817716
v -3.327055 1.818394 -1.634196
v -3.788310 1.605816 -1.708732
v -3.815321 1.572920 -1.705164
v -2.873132 1.387895 -2.167049
v -3.229337 1.075687 -2.364902
v -3.256348 1.042791 -2.361335
v -2.236554 0.872030 -2.104138
v -2.445436 0.440436 -2.287432
v -2.472447 0.407540 -2.283864
v -1.790217 0.572985 -1.482315
v -1.895805 0.072184 -1.521702
v -1.922816 0.039288 -1.518134
v -1.795581 0.665938 -0.665836
v -1.902410 0.186649 -0.516266
v -1.929421 0.153752 -0.512698
v -2.249503 1.096437 -0.132983
v -2.461383 0.716777 0.139905
v -2.488394 0.683881 0.143472
v -2.886082 1.612302 -0.195893
v -3.245284 1.352028 0.062435
v -3.272295 1.319132 0.066002
v -3.654093 1.549906 -0.217639
v -3.576476 1.644435 -0.227891
v -2.906612 0.987416 0.254997
v -2.828995 1.081945 0.244745
v -2.153896 0.334190 -0.069379
v -2.076279 0.428719 -0.079631
v -1.836875 -0.027122 -1.000754
v -1.759258 0.067408 -1.011006
v -2.141255 0.115133 -1.993539
v -2.063638 0.209662 -2.003791
v -2.888736 0.677623 -2.466176
v -2.811119 0.772152 -2.476428
v -3.641452 1.330849 -2.141799
v -3.563835 1.425379 -2.152051
v -3.958473 1.692161 -1.210424
v -3.880856 1.786690 -1.220676
vn -0.9997 -0.0260 -0.0036
vn 0.6324 0.7702 -0.0835
vn 0.9777 0.2095 -0.0174
vn -0.8248 -0.2311 -0.5160
vn 0.4898 0.6721 0.5552
vn -0.4385 -0.6204 -0.6502
vn 0.1547 0.8288 -0.5378
vn -0.1077 -0.9239 -0.3670
vn 0.4980 0.5309 -0.6857
vn -0.0011 -0.9936 0.1131
vn 0.8388 0.2744 -0.4702
vn -0.1438 -0.8261 0.5449
vn -0.4732 -0.4951 0.7286
vn 0.8331 0.3743 0.4073
vn -0.8363 -0.1539 0.5262
vn 0.0101 0.9935 -0.1130
vn -0.9443 -0.1741 0.2791
vn -0.6826 0.6049 0.4101
vn -0.3049 0.9087 0.2851
vn -0.6658 -0.3624 0.6522
vn -0.2236 0.2847 0.9322
vn 0.0828 0.6421 0.7621
vn -0.2768 -0.6788 0.6802
vn 0.3664 -0.2023 0.9082
vn 0.6010 0.2174 0.7691
vn -0.0051 -0.9380 0.3466
vn 0.7417 -0.5708 0.3522
vn 0.9462 -0.1167 0.3019
vn -0.0100 -0.9882 -0.1531
vn 0.6826 -0.6049 -0.4101
vn 0.9161 -0.1644 -0.3658
vn -0.2885 -0.7999 -0.5262
vn 0.2236 -0.2847 -0.9322
vn 0.5284 0.1022 -0.8428
vn -0.6776 -0.4835 -0.5542
vn -0.3664 0.2023 -0.9082
vn 0.0101 0.5270 -0.8498
vn -0.9492 -0.2243 -0.2206
vn -0.7417 0.5708 -0.3522
vn -0.3350 0.8610 -0.3826
vn -0.7454 0.6343 0.2052
vn -0.6763 0.4962 -0.5444
vn -0.2110 0.0675 -0.9751
vn 0.3778 -0.4008 -0.8346
vn 0.7454 -0.6343 -0.2052
vn 0.6763 -0.4962 0.5444
vn 0.2110 -0.0675 0.9751
vn -0.3778 0.4008 0.8346
vn -0.8387 -0.2778 0.4684
vn -0.6854 -0.3476 0.6398
vn -0.0001 0.7045 0.7097
vn -0.4995 -0.5331 0.6829
vn -0.2965 -0.6616 0.6887
vn 0.5175 0.2898 0.8051
vn -0.1579 -0.8295 0.5357
vn -0.0134 -0.9285 0.3711
vn 0.9110 -0.0766 0.4052
vn -0.0140 -0.9935 0.1130
vn -0.0020 -0.9919 -0.1270
vn 0.9498 -0.1802 -0.2556
vn -0.1522 -0.9289 -0.3375
vn -0.2689 -0.8147 -0.5138
vn 0.6113 0.0398 -0.7904
vn -0.4914 -0.6737 -0.5520
vn -0.6578 -0.5007 -0.5627
vn 0.0937 0.4545 -0.8858
vn -0.8330 -0.3772 -0.4048
vn -0.9409 -0.2338 -0.2451
vn -0.2998 0.8209 -0.4860
vn -0.9768 -0.2133 0.0179
vn -0.9523 -0.1704 0.2530
vn -0.3387 0.9245 0.1749
vn 0.2513 0.9660 0.0614
vn 0.2535 0.9278 -0.2736
vn 0.4398 0.7512 -0.4923
vn 0.7009 0.5395 -0.4665
vn 0.8841 0.4168 -0.2113
vn 0.8819 0.4550 0.1237
vn 0.6956 0.6316 0.3423
vn 0.4344 0.8433 0.3165
vn 0.1489 0.9287 0.3397
s 0

f 1//1 3//1 5//1
f 2//2 6//2 4//2
f 34//3 50//3 31//3 14//3
f 1//4 5//4 7//4
f 2//2 8//2 6//2
f 40//5 46//5 37//5 18//5
f 1//6 7//6 9//6
f 2//2 10//2 8//2
f 25//7 56//7 22//7 8//7
f 1//8 9//8 11//8
f 2//2 12//2 10//2
f 28//9 54//9 25//9 10//9
f 1//10 11//10 13//10
f 2//2 14//2 12//2
f 31//11 52//11 28//11 12//11
f 1//12 13//12 15//12
f 2//2 16//2 14//2
f 1//13 15//13 17//13
f 2//2 18//2 16//2
f 37//14 48//14 34//14 16//14
f 1//15 17//15 3//15
f 2//2 4//2 18//2
f 22//16 58//16 21//16 6//16
f 43//17 19//17 3//17
f 43//18 44//18 20//18 19//18
f 21//19 20//19 44//19
f 45//20 42//20 17//20
f 45//21 46//21 41//21 42//21
f 40//22 41//22 46//22
f 47//23 39//23 15//23
f 47//24 48//24 38//24 39//24
f 37//25 38//25 48//25
f 49//26 36//26 13//26
f 49//27 50//27 35//27 36//27
f 34//28 35//28 50//28
f 51//29 33//29 11//29
f 51//30 52//30 32//30 33//30
f 31//31 32//31 52//31
f 53//32 30//32 9//32
f 53//33 54//33 29//33 30//33
f 28//34 29//34 54//34
f 55//35 27//35 7//35
f 55//36 56//36 26//36 27//36
f 25//37 26//37 56//37
f 57//38 24//38 5//38
f 57//39 58//39 23//39 24//39
f 22//40 23//40 58//40
f 19//41 20//41 58//41 57//41
f 24//42 23//42 56//42 55//42
f 27//43 26//43 54//43 53//43
f 30//44 29//44 52//44 51//44
f 33//45 32//45 50//45 49//45
f 36//46 35//46 48//46 47//46
f 39//47 38//47 46//47 45//47
f 42//48 41//48 44//48 43//48
f 3//49 17//49 43//49
f 17//50 42//50 43//50
f 44//51 41//51 40//51
f 17//52 15//52 45//52
f 15//53 39//53 45//53
f 46//54 38//54 37//54
f 15//55 13//55 47//55
f 13//56 36//56 47//56
f 48//57 35//57 34//57
f 13//58 11//58 49//58
f 11//59 33//59 49//59
f 50//60 32//60 31//60
f 11//61 9//61 51//61
f 9//62 30//62 51//62
f 52//63 29//63 28//63
f 9//64 7//64 53//64
f 7//65 27//65 53//65
f 54//66 26//66 25//66
f 7//67 5//67 55//67
f 5//68 24//68 55//68
f 56//69 23//69 22//69
f 5//70 3//70 57//70
f 3//71 19//71 57//71
f 58//72 20//72 21//72
f 21//73 4//73 6//73
f 22//74 6//74 8//74
f 25//75 8//75 10//75
f 28//76 10//76 12//76
f 31//77 12//77 14//77
f 34//78 14//78 16//78
f 37//79 16//79 18//79
f 40//80 18//80 4//80
f 21//81 44//81 40//81 4//81
