# Blender 3.6.1
# www.blender.org

o Cylinder.002
v -1.455139 -0.063361 -1.841889
v -0.170549 1.487667 -1.838966
v -1.454829 0.199089 -1.805498
v -0.461492 1.728139 -1.577746
v -1.436659 0.184283 -1.934275
v -0.518286 1.775823 -1.921158
v -1.353697 0.115713 -2.008761
v -0.371380 1.654710 -2.216423
v -1.254540 0.033545 -1.985324
v -0.106830 1.435745 -2.290579
v -1.197273 -0.014087 -1.877692
v 0.120394 1.247195 -2.100186
v -1.215443 0.000719 -1.748915
v 0.177187 1.199510 -1.756773
v -1.298405 0.069289 -1.674429
v 0.030282 1.320624 -1.461508
v -1.397562 0.151457 -1.697866
v -0.234268 1.539589 -1.387352
v -1.683231 1.687384 -1.561067
v -1.655986 1.720280 -1.561005
v -1.182369 1.911346 -1.612801
v -1.068298 1.818394 -2.421290
v -1.515515 1.605816 -2.556602
v -1.542760 1.572920 -2.556664
v -0.547444 1.387895 -2.888933
v -0.874121 1.075687 -3.132470
v -0.901367 1.042791 -3.132532
v 0.075082 0.872030 -2.741790
v -0.107524 0.440436 -2.951274
v -0.134770 0.407540 -2.951336
v 0.434614 0.572985 -2.066056
v 0.335214 0.072184 -2.119156
v 0.307968 0.039288 -2.119218
v 0.320543 0.665938 -1.257566
v 0.194743 0.186649 -1.123559
v 0.167497 0.153752 -1.123621
v -0.200311 1.096437 -0.789924
v -0.446651 0.716777 -0.547691
v -0.473896 0.683881 -0.547753
v -0.822837 1.612302 -0.937067
v -1.213248 1.352028 -0.728887
v -1.240493 1.319132 -0.728949
v -1.581108 1.549906 -1.060918
v -1.502817 1.644435 -1.060740
v -0.903244 0.987416 -0.492929
v -0.824953 1.081945 -0.492750
v -0.114028 0.334190 -0.714153
v -0.035737 0.428719 -0.713975
v 0.324228 -0.027122 -1.595000
v 0.402519 0.067408 -1.594822
v 0.154799 0.115133 -2.619483
v 0.233091 0.209662 -2.619305
v -0.523065 0.677623 -3.187472
v -0.444774 0.772152 -3.187294
v -1.312281 1.330849 -2.966248
v -1.233990 1.425379 -2.966070
v -1.750537 1.692161 -2.085400
v -1.672246 1.786690 -2.085222
vn -0.9896 0.0209 -0.1420
vn 0.6379 0.7702 0.0015
vn 0.9713 0.2095 0.1130
vn -0.7374 -0.1871 -0.6490
vn 0.4115 0.6721 0.6155
vn -0.2831 -0.5631 -0.7764
vn 0.2250 0.8288 -0.5124
vn 0.1071 -0.8869 -0.4494
vn 0.5849 0.5309 -0.6133
vn 0.2046 -0.9688 0.1402
vn 0.8940 0.2744 -0.3542
vn -0.0477 -0.7608 0.6473
vn -0.5019 -0.3848 0.7746
vn 0.7714 0.3743 0.5147
vn -0.8921 -0.0610 0.4477
vn 0.0251 0.9935 -0.1107
vn -0.9731 -0.1741 0.1508
vn -0.7311 0.6049 0.3156
vn -0.3401 0.9087 0.2419
vn -0.7467 -0.3624 0.5577
vn -0.3457 0.2847 0.8941
vn -0.0194 0.6421 0.7664
vn -0.3649 -0.6788 0.6373
vn 0.2421 -0.2023 0.9489
vn 0.4932 0.2174 0.8423
vn -0.0512 -0.9380 0.3429
vn 0.6882 -0.5708 0.4478
vn 0.8975 -0.1167 0.4252
vn 0.0105 -0.9882 -0.1530
vn 0.7311 -0.6049 -0.3156
vn 0.9566 -0.1644 -0.2405
vn -0.2159 -0.7999 -0.5599
vn 0.3457 -0.2847 -0.8941
vn 0.6359 0.1022 -0.7650
vn -0.5977 -0.4835 -0.6395
vn -0.2421 0.2023 -0.9489
vn 0.1233 0.5270 -0.8409
vn -0.9114 -0.2243 -0.3451
vn -0.6882 0.5708 -0.4478
vn -0.2810 0.8610 -0.4238
vn -0.7661 0.6343 0.1041
vn -0.5977 0.4962 -0.6296
vn -0.0793 0.0675 -0.9946
vn 0.4856 -0.4008 -0.7769
vn 0.7661 -0.6343 -0.1041
vn 0.5977 -0.4962 0.6296
vn 0.0793 -0.0675 0.9946
vn -0.4856 0.4008 0.7769
vn -0.8936 -0.2778 0.3525
vn -0.7645 -0.3476 0.5428
vn -0.0946 0.7045 0.7033
vn -0.5860 -0.5331 0.6103
vn -0.3856 -0.6616 0.6431
vn 0.4057 0.2898 0.8668
vn -0.2279 -0.8295 0.5099
vn -0.0627 -0.9285 0.3660
vn 0.8489 -0.0766 0.5230
vn -0.0290 -0.9935 0.1101
vn 0.0149 -0.9919 -0.1261
vn 0.9754 -0.1802 -0.1269
vn -0.1059 -0.9289 -0.3548
vn -0.1981 -0.8147 -0.5450
vn 0.7111 0.0398 -0.7019
vn -0.4135 -0.6737 -0.6125
vn -0.5770 -0.5007 -0.6453
vn 0.2108 0.4545 -0.8654
vn -0.7716 -0.3772 -0.5121
vn -0.8999 -0.2338 -0.3682
vn -0.2324 0.8209 -0.5216
vn -0.9705 -0.2133 -0.1124
vn -0.9776 -0.1704 0.1239
vn -0.3589 0.9245 0.1283
vn 0.2409 0.9660 0.0943
vn 0.2877 0.9278 -0.2374
vn 0.5014 0.7512 -0.4293
vn 0.7568 0.5395 -0.3689
vn 0.9043 0.4168 -0.0917
vn 0.8575 0.4550 0.2400
vn 0.6438 0.6316 0.4319
vn 0.3884 0.8433 0.3715
vn 0.1024 0.9287 0.3565
s 0

f 1//1 3//1 5//1
f 2//2 6//2 4//2
f 34//3 50//3 31//3 14//3
f 1//4 5//4 7//4
f 2//2 8//2 6//2
f 40//5 46//5 37//5 18//5
f 1//6 7//6 9//6
f 2//2 10//2 8//2
f 25//7 56//7 22//7 8//7
f 1//8 9//8 11//8
f 2//2 12//2 10//2
f 28//9 54//9 25//9 10//9
f 1//10 11//10 13//10
f 2//2 14//2 12//2
f 31//11 52//11 28//11 12//11
f 1//12 13//12 15//12
f 2//2 16//2 14//2
f 1//13 15//13 17//13
f 2//2 18//2 16//2
f 37//14 48//14 34//14 16//14
f 1//15 17//15 3//15
f 2//2 4//2 18//2
f 22//16 58//16 21//16 6//16
f 43//17 19//17 3//17
f 43//18 44//18 20//18 19//18
f 21//19 20//19 44//19
f 45//20 42//20 17//20
f 45//21 46//21 41//21 42//21
f 40//22 41//22 46//22
f 47//23 39//23 15//23
f 47//24 48//24 38//24 39//24
f 37//25 38//25 48//25
f 49//26 36//26 13//26
f 49//27 50//27 35//27 36//27
f 34//28 35//28 50//28
f 51//29 33//29 11//29
f 51//30 52//30 32//30 33//30
f 31//31 32//31 52//31
f 53//32 30//32 9//32
f 53//33 54//33 29//33 30//33
f 28//34 29//34 54//34
f 55//35 27//35 7//35
f 55//36 56//36 26//36 27//36
f 25//37 26//37 56//37
f 57//38 24//38 5//38
f 57//39 58//39 23//39 24//39
f 22//40 23//40 58//40
f 19//41 20//41 58//41 57//41
f 24//42 23//42 56//42 55//42
f 27//43 26//43 54//43 53//43
f 30//44 29//44 52//44 51//44
f 33//45 32//45 50//45 49//45
f 36//46 35//46 48//46 47//46
f 39//47 38//47 46//47 45//47
f 42//48 41//48 44//48 43//48
f 3//49 17//49 43//49
f 17//50 42//50 43//50
f 44//51 41//51 40//51
f 17//52 15//52 45//52
f 15//53 39//53 45//53
f 46//54 38//54 37//54
f 15//55 13//55 47//55
f 13//56 36//56 47//56
f 48//57 35//57 34//57
f 13//58 11//58 49//58
f 11//59 33//59 49//59
f 50//60 32//60 31//60
f 11//61 9//61 51//61
f 9//62 30//62 51//62
f 52//63 29//63 28//63
f 9//64 7//64 53//64
f 7//65 27//65 53//65
f 54//66 26//66 25//66
f 7//67 5//67 55//67
f 5//68 24//68 55//68
f 56//69 23//69 22//69
f 5//70 3//70 57//70
f 3//71 19//71 57//71
f 58//72 20//72 21//72
f 21//73 4//73 6//73
f 22//74 6//74 8//74
f 25//75 8//75 10//75
f 28//76 10//76 12//76
f 31//77 12//77 14//77
f 34//78 14//78 16//78
f 37//79 16//79 18//79
f 40//80 18//80 4//80
f 21//81 44//81 40//81 4//81
